<svg width="28" height="24" viewBox="0 0 28 24" fill="none" xmlns="http://www.w3.org/2000/svg">
<path d="M20.2051 4.54493C20.0042 4.34477 19.6792 4.34534 19.4791 4.54611L19.4567 4.56854C19.2566 4.76937 19.2571 5.09442 19.458 5.29458C19.5582 5.39443 19.6892 5.44433 19.8203 5.44433C19.952 5.44433 20.0836 5.39402 20.184 5.2934L20.2063 5.27097C20.4064 5.07014 20.4059 4.74509 20.2051 4.54493Z" fill="white"/>
<path d="M22.7562 7.82213C24.7158 5.86255 26.2228 3.44794 27.1143 0.839278C27.1776 0.654008 27.13 0.448769 26.9915 0.310266C26.853 0.171763 26.6478 0.124226 26.4625 0.187472C24.4049 0.890716 22.5051 1.94956 20.8161 3.33475C20.5968 3.51452 20.5648 3.83799 20.7446 4.05719C20.9243 4.27644 21.2478 4.30853 21.467 4.12865C22.7694 3.06067 24.2042 2.19828 25.7445 1.55664C24.0063 5.71368 20.6478 9.07215 16.4907 10.8104C17.1162 9.30922 17.9518 7.90719 18.983 6.63084C19.1612 6.4103 19.1269 6.0871 18.9063 5.90891C18.6857 5.73062 18.3625 5.76502 18.1844 5.98561C16.8405 7.64893 15.81 9.51384 15.1215 11.5284C15.1143 11.5496 15.1089 11.5711 15.1045 11.5927C14.9344 11.7593 14.7638 11.9252 14.5924 12.0903C15.097 10.5444 15.3597 8.91044 15.3597 7.27721C15.3597 4.97538 14.8386 2.6719 13.8526 0.615763C13.7672 0.437681 13.5872 0.324383 13.3897 0.324383C13.1922 0.324383 13.0122 0.437681 12.9268 0.615763C11.9408 2.6719 11.4197 4.97538 11.4197 7.27721C11.4197 9.5048 11.9078 11.7338 12.833 13.7389C11.8388 14.6445 10.8242 15.526 9.79063 16.3826C10.3229 14.7314 10.5999 12.9885 10.5999 11.2463C10.5999 8.76193 10.0374 6.27591 8.97327 4.05678C8.88785 3.8787 8.70786 3.7654 8.51038 3.7654C8.31289 3.7654 8.13286 3.8787 8.04748 4.05678C6.98335 6.27591 6.42087 8.76193 6.42087 11.2463C6.42087 13.5548 6.90681 15.8646 7.82936 17.9605C6.76312 18.7926 5.67825 19.5984 4.57628 20.377C5.02603 18.9746 5.26048 17.4952 5.26048 16.0163C5.26048 13.8973 4.7807 11.7768 3.87299 9.88392C3.78762 9.70583 3.60764 9.59254 3.4101 9.59254C3.21256 9.59254 3.03258 9.70583 2.9472 9.88392C2.03949 11.7768 1.55971 13.8973 1.55971 16.0163C1.55971 17.9515 1.96105 19.8873 2.72184 21.6505C2.18364 22.0097 1.6419 22.3628 1.09625 22.7091C0.856876 22.861 0.785981 23.1782 0.937883 23.4176C1.03563 23.5717 1.2019 23.656 1.37182 23.656C1.46592 23.656 1.5611 23.6302 1.64641 23.576C2.20859 23.2193 2.76671 22.8553 3.32108 22.4849C5.19626 23.3712 7.29049 23.8401 9.38354 23.8401C11.5025 23.8401 13.6231 23.3603 15.516 22.4526C15.6941 22.3673 15.8074 22.1873 15.8074 21.9897C15.8074 21.7922 15.6941 21.6122 15.516 21.5268C13.6231 20.6191 11.5026 20.1394 9.38354 20.1394C8.29508 20.1394 7.20641 20.2669 6.14812 20.5131C6.93135 19.943 7.70569 19.3594 8.47049 18.7624C10.48 19.6928 12.7157 20.1838 14.9497 20.1838C17.2515 20.1838 19.555 19.6627 21.6111 18.6767C21.7892 18.5913 21.9025 18.4113 21.9025 18.2138C21.9025 18.0162 21.7892 17.8362 21.6111 17.7509C19.555 16.7649 17.2516 16.2437 14.9497 16.2437C13.5895 16.2437 12.2287 16.4259 10.9187 16.7782C11.7389 16.0887 12.547 15.3835 13.3422 14.6632C14.7421 15.3064 16.231 15.734 17.772 15.9343C17.7945 15.9372 17.8168 15.9386 17.8389 15.9386C18.0929 15.9386 18.3137 15.7501 18.3473 15.4914C18.3838 15.2102 18.1855 14.9527 17.9044 14.9161C16.7798 14.77 15.685 14.4944 14.6367 14.0943C17.9248 12.8441 21.627 12.8441 24.9151 14.0943C23.8833 14.4881 22.8062 14.7613 21.7 14.9092C21.419 14.9468 21.2217 15.2051 21.2593 15.4861C21.2969 15.7671 21.5552 15.9639 21.8361 15.9269C23.4409 15.7122 24.989 15.2513 26.4373 14.5568C26.6154 14.4714 26.7287 14.2914 26.7287 14.0939C26.7287 13.8963 26.6154 13.7164 26.4373 13.631C24.3812 12.645 22.0777 12.1239 19.7759 12.1239C18.2865 12.1239 16.7965 12.3424 15.3733 12.7635C15.6111 12.5338 15.8479 12.303 16.0832 12.0706C18.5732 11.1679 20.8746 9.70383 22.7562 7.82213ZM3.4102 20.6124C2.31922 17.6659 2.31922 14.367 3.4102 11.4205C4.50118 14.3669 4.50118 17.6658 3.4102 20.6124ZM13.9796 21.9899C11.0331 23.0809 7.73418 23.0809 4.78773 21.9899C7.73418 20.8989 11.0331 20.8989 13.9796 21.9899ZM8.51048 16.9231C7.10204 13.297 7.10204 9.19577 8.51048 5.56958C9.91887 9.19577 9.91887 13.297 8.51048 16.9231ZM20.0879 18.2139C16.8002 19.4638 13.0995 19.4638 9.81178 18.2139C13.0995 16.9639 16.8002 16.9639 20.0879 18.2139ZM13.3898 12.4153C12.14 9.1279 12.1402 5.42667 13.3898 2.13919C14.6395 5.42672 14.6396 9.12795 13.3898 12.4153Z" fill="white"/>
<path d="M19.952 15.0363L19.9306 15.0365C19.6471 15.0405 19.4205 15.2735 19.4245 15.557C19.4285 15.8381 19.6575 16.0632 19.9376 16.0632C19.9401 16.0632 19.9426 16.0632 19.945 16.0631L19.9664 16.0629C20.2499 16.0589 20.4765 15.8259 20.4725 15.5424C20.4685 15.2588 20.2352 15.0307 19.952 15.0363Z" fill="white"/>
</svg>
