<svg width="24" height="24" viewBox="0 0 24 24" fill="none" xmlns="http://www.w3.org/2000/svg">
<path d="M12 0.5C5.64796 0.5 0.5 5.64886 0.5 12C0.5 18.3511 5.64796 23.5 12 23.5C18.352 23.5 23.5 18.3511 23.5 12C23.5 5.64886 18.352 0.5 12 0.5ZM12.4662 22.5558V20.7027C12.4662 20.445 12.2574 20.2365 12 20.2365C11.7426 20.2365 11.5338 20.445 11.5338 20.7027V22.5558C6.07683 22.3173 1.68261 17.9228 1.44426 12.4662H3.29729C3.55464 12.4662 3.76353 12.2574 3.76353 12C3.76353 11.7423 3.55464 11.5338 3.29729 11.5338H1.44426C1.68266 6.07719 6.07692 1.68261 11.5338 1.44426V3.29729C11.5338 3.55464 11.7426 3.76353 12 3.76353C12.2574 3.76353 12.4662 3.55464 12.4662 3.29729V1.44426C17.9232 1.68266 22.3174 6.07719 22.5558 11.5338H20.7027C20.4454 11.5338 20.2365 11.7423 20.2365 12C20.2365 12.2574 20.4454 12.4663 20.7027 12.4663H22.5558C22.3173 17.9228 17.9231 22.3173 12.4662 22.5558Z" fill="white"/>
<path d="M18.0546 5.52177C17.9458 5.52177 17.8177 5.54755 17.6745 5.60164L10.1106 8.45926C9.47095 8.70076 8.75017 9.42216 8.50867 10.0615L5.65137 17.6254C5.46365 18.1218 5.61782 18.4288 5.99485 18.4288C6.10365 18.4288 6.23172 18.403 6.37493 18.3489L13.9388 15.4913C14.5785 15.2498 15.2992 14.5284 15.5407 13.8891L18.398 6.3252C18.5858 5.82886 18.432 5.52177 18.0546 5.52177ZM13.6094 14.6192L6.81386 17.1865L9.38119 10.391C9.41232 10.3092 9.46264 10.2213 9.52198 10.1321L10.413 11.0234C10.2381 11.3075 10.1352 11.6413 10.1352 12C10.1352 13.03 10.97 13.8648 12.0004 13.8648C12.3588 13.8648 12.6926 13.762 12.9766 13.5866L13.8684 14.4784C13.7794 14.5378 13.6912 14.5884 13.6094 14.6192ZM11.0676 12C11.0676 11.4859 11.486 11.0676 12.0003 11.0676C12.5141 11.0676 12.9324 11.4859 12.9324 12C12.9324 12.5141 12.5141 12.9324 12.0003 12.9324C11.486 12.9324 11.0676 12.5141 11.0676 12ZM14.6686 13.5596C14.6375 13.6414 14.5872 13.7296 14.5275 13.8188L13.624 12.915C13.7766 12.6445 13.8648 12.3328 13.8648 12C13.8648 10.9699 13.03 10.1351 12.0003 10.1351C11.6674 10.1351 11.3553 10.2234 11.0846 10.376L10.1814 9.47247C10.2706 9.41277 10.3586 9.36246 10.4406 9.33132L17.2358 6.76399L14.6686 13.5596Z" fill="white"/>
</svg>
