{
	"asset":{
		"version":"2.0",
		"generator":"Created using the official Cinema 4D glTF Exporter 1.000x290161"
	},
	"scenes":[{
		"nodes":[0]
	}],
	"nodes":[{
		"name":"Cylinder.1",
		"mesh":0
	}],
	"meshes":[{
		"primitives":[{
			"attributes":{
				"POSITION":1,
				"NORMAL":2,
				"TEXCOORD_0":3
			},
			"indices":0,
			"material":0
		}]
	}],
	"accessors":[{
		"bufferView":0,
		"type":"SCALAR",
		"componentType":5123,
		"count":5424,
		"byteOffset":0,
		"min":[0],
		"max":[945]
	},
	{
		"bufferView":1,
		"type":"VEC3",
		"componentType":5126,
		"count":946,
		"byteOffset":0,
		"min":[-0.965,
		-1.527,
		-0.697],
		"max":[0.965,
		1.527,
		0.697]
	},
	{
		"bufferView":1,
		"type":"VEC3",
		"componentType":5126,
		"count":946,
		"byteOffset":12,
		"min":[-0.999,
		-1,
		-0.999],
		"max":[0.996,
		1,
		0.998]
	},
	{
		"bufferView":1,
		"type":"VEC2",
		"componentType":5126,
		"count":946,
		"byteOffset":24,
		"min":[0.022,
		0.016],
		"max":[0.966,
		0.971]
	}],
	"buffers":[{
		"uri":"data:application/octet-stream;base64,",
		"byteLength":41120
	}],
	"bufferViews":[{
		"buffer":0,
		"byteOffset":0,
		"byteLength":10848,
		"target":34963
	},
	{
		"buffer":0,
		"byteOffset":10848,
		"byteLength":30272,
		"target":34962,
		"byteStride":32
	}],
	"images":[{
		"uri":"data:image/jpeg;base64,"
	}],
	"samplers":[{
		"magFilter":9729,
		"minFilter":9729,
		"wrapS":10497,
		"wrapT":10497
	}],
	"textures":[{
		"sampler":0,
		"source":0
	}],
	"materials":[{
		"pbrMetallicRoughness":{
			"baseColorTexture":{
				"index":0
			},
			"baseColorFactor":[1,
			1,
			1,
			1],
			"metallicFactor":1,
			"roughnessFactor":1
		},
		"emissiveFactor":[0,
		0,
		0],
		"alphaMode":"OPAQUE",
		"doubleSided":true,
		"name":"Cylinder.1"
	}]
}