<svg width="92" height="43" viewBox="0 0 92 43" fill="none" xmlns="http://www.w3.org/2000/svg">
<path d="M30.5137 10.0851C32.808 9.91882 37.4539 9.80799 44.2219 9.80799V14.0747H24.3192V8.03479C31.1446 5.87371 35.7905 4.59923 38.0274 4.15593V3.98969C35.7332 4.10052 31.0873 4.26676 24.3192 4.26676V0H44.2219V6.09536C37.4539 8.20103 32.808 9.53093 30.5137 9.97423V10.0851Z" fill="white"/>
<path d="M24.3192 17.1224H44.2219V26.9304H41.01V21.8879H36.2494V26.9304H33.0948V21.8879H24.3192V17.1224Z" fill="white"/>
<path d="M34.8155 38.1791C34.3566 41.2268 32.8653 42.6675 29.8254 42.6675C25.8105 42.6675 24.3192 39.7861 24.3192 35.4639V29.1469H44.2219V34.7436C44.2219 39.0657 43.1895 41.9472 39.3466 41.9472C36.4788 41.9472 35.217 40.2848 34.9302 38.1237H34.8155V38.1791ZM36.2494 33.9678V35.2977C36.2494 36.6276 36.995 37.2925 38.7157 37.2925C40.3217 37.2925 41.01 36.5168 41.01 35.2423V33.9678H36.2494ZM27.4738 33.9678V35.2977C27.4738 36.9601 28.2194 37.7912 30.1122 37.7912C31.8903 37.7912 33.0374 37.0155 33.0374 35.3531V34.0232H27.4738V33.9678Z" fill="white"/>
<path d="M10.3242 43C3.21197 43 0 40.5064 0 35.8518C0 31.1972 3.15461 28.7036 10.3242 28.7036C17.4938 28.7036 20.6484 31.1972 20.6484 35.8518C20.7057 40.5064 17.5511 43 10.3242 43ZM3.21197 35.8518C3.21197 37.0709 4.7606 38.0683 10.3815 38.0683C15.9451 38.0683 17.4938 37.0709 17.4938 35.8518C17.4938 34.5773 15.9451 33.6353 10.3815 33.6353C4.70324 33.5799 3.21197 34.5773 3.21197 35.8518Z" fill="white"/>
<path d="M14.1097 16.6237C11.8155 16.7899 7.16958 16.9008 0.401496 16.9008V12.634H20.3042V18.674C13.4788 20.8351 8.83292 22.1095 6.59601 22.5528V22.7191C8.89027 22.6082 13.5362 22.442 20.3042 22.442V26.7088H0.401496V20.6134C7.16958 18.5077 11.8155 17.1778 14.1097 16.7345V16.6237Z" fill="white"/>
<path d="M20.3042 9.80799H0.401496V0H3.61347V4.98711H8.37406V0H11.5287V4.98711H20.3042V9.80799Z" fill="white"/>
<path d="M79.4389 24.8802C84.0274 24.2706 88.5013 22.1095 91.9426 18.3969V18.3415C88.5013 14.6289 84.0848 12.4678 79.4389 11.8582C82.1347 12.8557 84.0274 15.4046 84.0274 18.3415C84.0274 21.3338 82.1347 23.8827 79.4389 24.8802Z" fill="white"/>
<path d="M74.1621 11.8582C69.5162 12.4678 65.0424 14.6289 61.601 18.3415C65.0424 22.1095 69.5162 24.2706 74.1621 24.8247C71.4663 23.8273 69.5736 21.2783 69.5736 18.3415C69.5736 15.4046 71.4663 12.9111 74.1621 11.8582Z" fill="white"/>
<path d="M86.0349 30.8647L85.5187 31.0309V31.5296C85.5187 31.5296 85.5187 36.7938 85.5187 42.2796H91.9426V28.0941C90.1072 29.2577 88.1571 30.1443 86.0349 30.8647Z" fill="white"/>
<path d="M68.0823 31.0309L67.6234 30.8647C61.1422 28.7036 55.7506 24.3814 52.0798 18.3969C57.3566 9.8634 66.2469 4.71005 76.1122 4.43299H77.6035C82.8229 4.59923 87.7556 6.09536 92 8.69974V0H48.2369V42.2796H68.1396C68.0823 36.5722 68.0823 31.0309 68.0823 31.0309Z" fill="white"/>
</svg>
