<svg width="28" height="28" viewBox="0 0 28 28" fill="none" xmlns="http://www.w3.org/2000/svg">
<path fill-rule="evenodd" clip-rule="evenodd" d="M27.8132 1.8994C27.9132 1.23502 27.3328 0.668638 26.6714 0.7792L12.501 3.14208C5.91075 4.22267 1.56072 10.6332 3.27177 17.2126C3.69918 18.8579 4.40586 20.3161 5.48301 21.6433L1.08698 26.0257C0.700241 26.4113 0.700235 27.0366 1.08696 27.4221C1.47329 27.8073 2.0995 27.8074 2.4859 27.4221L6.85523 23.0662C8.17759 24.2197 9.7695 25.0747 11.5286 25.5294C18.1561 27.2423 24.6568 22.8434 25.6649 16.1669L27.8132 1.8994ZM11.5584 15.5865V5.38616C11.5976 5.37345 11.6352 5.36141 11.6729 5.34973C12.2062 5.18464 12.762 5.09242 18.0882 4.20882C19.6133 3.95581 21.5294 3.63792 23.9482 3.23485L19.4574 7.71176V5.8974C19.4574 5.35164 19.0138 4.91029 18.4679 4.91029C17.9221 4.91029 17.4784 5.35164 17.4784 5.8974V9.68474L11.5584 15.5865ZM24.1651 12.8368H17.1162L25.4101 4.56849L24.1651 12.8368ZM9.57941 17.5594L6.89239 20.2382C3.52149 15.8878 4.39862 9.23678 9.57941 6.25187V17.5594ZM8.25947 21.6663L15.136 14.811H23.8678L23.7079 15.8732C23.1254 19.7305 20.2045 22.8768 16.4441 23.7031C13.5276 24.3439 10.5026 23.568 8.25947 21.6663Z" fill="white"/>
</svg>
