<svg width="27" height="21" viewBox="0 0 27 21" fill="none" xmlns="http://www.w3.org/2000/svg">
<path d="M24.8364 8.12707L20.3825 3.26592C19.5011 2.39063 18.0654 2.38947 17.1758 3.27298C16.8939 3.55296 16.702 3.88825 16.6025 4.24594C15.7165 3.57182 14.4383 3.63888 13.6221 4.44948C13.3414 4.72947 13.1495 5.06476 13.0476 5.42123C12.1615 4.74948 10.8834 4.81533 10.0684 5.62594C9.79236 5.90007 9.60285 6.22709 9.49979 6.57535L7.40071 4.49062C6.51938 3.61533 5.08368 3.61417 4.19408 4.49768C3.31159 5.37298 3.31159 6.79886 4.19408 7.67531L12.2586 15.6847L7.47533 16.4306C6.18295 16.6141 5.20806 17.7294 5.20806 19.027C5.20806 20 6.00526 20.7918 6.98492 20.7918H18.1543C19.8944 20.7918 21.5303 20.1188 22.7611 18.8965L24.6244 17.0459C25.854 15.8259 26.5303 14.2023 26.5303 12.4765C26.5303 10.8647 25.9286 9.32001 24.8364 8.12707ZM23.7869 16.2141L21.9235 18.0647C20.9167 19.0647 19.5781 19.6152 18.1542 19.6152H6.98487C6.65792 19.6152 6.39256 19.3517 6.39256 19.027C6.39256 18.3117 6.93034 17.6964 7.65174 17.5941L13.5924 16.667C13.8127 16.6328 13.994 16.4788 14.0639 16.2682C14.1326 16.0588 14.0769 15.827 13.9193 15.6705L5.03154 6.84353C4.61103 6.4259 4.61103 5.74588 5.03748 5.32119C5.24832 5.11296 5.52434 5.00823 5.80037 5.00823C6.07639 5.00823 6.35236 5.11296 6.56325 5.32235L12.4897 11.2082C12.7207 11.4377 13.0962 11.4377 13.3272 11.2082C13.4421 11.0929 13.5002 10.9424 13.5002 10.7918C13.5002 10.6412 13.4421 10.4906 13.326 10.3753L10.906 7.97178C10.4854 7.55415 10.4854 6.87529 10.9131 6.4506C11.3324 6.03413 12.0183 6.03413 12.4376 6.4506L14.8589 8.85529C15.0899 9.0847 15.4654 9.0847 15.6964 8.85529C15.8113 8.73998 15.8693 8.58943 15.8693 8.43882C15.8693 8.28821 15.8113 8.13766 15.6952 8.02235L14.4597 6.79527C14.0392 6.37764 14.0392 5.69878 14.4668 5.2741C14.8861 4.85763 15.572 4.85763 15.9913 5.2741L17.2327 6.50702C17.2351 6.50818 17.2339 6.50818 17.2339 6.50818L17.2374 6.51165H17.2386L17.2397 6.51281C17.4719 6.73163 17.8392 6.72695 18.0654 6.50106C18.2964 6.27165 18.2964 5.89869 18.0654 5.66928L18.0145 5.61871C17.8107 5.41638 17.6982 5.14693 17.6982 4.86105C17.6982 4.57516 17.8095 4.30693 18.0204 4.09754C18.4421 3.68107 19.1244 3.68222 19.526 4.07752L23.9611 8.91871C24.853 9.89409 25.3458 11.1576 25.3458 12.4765C25.3458 13.8882 24.7926 15.2153 23.7869 16.2141Z" fill="white"/>
<path d="M10.6523 3.91296C9.78997 2.01767 7.88518 0.791748 5.80031 0.791748C2.86138 0.791748 0.469727 3.16704 0.469727 6.08586C0.469727 8.15647 1.70403 10.0482 3.61238 10.9059C3.69173 10.9412 3.77469 10.9577 3.85642 10.9577C4.08147 10.9577 4.29709 10.8282 4.39659 10.6118C4.53046 10.3153 4.39776 9.96705 4.10046 9.83294C2.61501 9.16588 1.65434 7.69527 1.65434 6.08586C1.65434 3.81529 3.5141 1.9682 5.80037 1.9682C7.42086 1.9682 8.9016 2.9223 9.57325 4.39759C9.70713 4.69406 10.0589 4.82702 10.3562 4.69169C10.6547 4.55763 10.7873 4.20943 10.6523 3.91296Z" fill="white"/>
</svg>
