<svg width="167" height="43" viewBox="0 0 167 43" fill="none" xmlns="http://www.w3.org/2000/svg">
<path fill-rule="evenodd" clip-rule="evenodd" d="M27.8698 15.6087C27.4793 15.9993 26.8461 15.9993 26.4556 15.6087L22.5 11.6531L22.5 21.4826L27.8698 26.8524C28.2604 27.243 28.2604 27.8761 27.8698 28.2666C27.4793 28.6572 26.8461 28.6572 26.4556 28.2666L22.5 24.311L22.5 34.1709C22.5 34.7232 22.0523 35.1709 21.5 35.1709C20.9477 35.1709 20.5 34.7232 20.5 34.1709L20.5 24.311L16.5443 28.2666C16.1538 28.6572 15.5206 28.6572 15.1301 28.2666C14.7396 27.8761 14.7396 27.243 15.1301 26.8524L20.5 21.4826L20.5 11.6531L16.5443 15.6087C16.1538 15.9993 15.5206 15.9993 15.1301 15.6087C14.7396 15.2182 14.7396 14.5851 15.1301 14.1945L20.7929 8.53179C20.9804 8.34425 21.2348 8.23889 21.5 8.23889C21.7652 8.23889 22.0195 8.34425 22.2071 8.53179L27.8698 14.1945C28.2604 14.5851 28.2604 15.2182 27.8698 15.6087Z" fill="white"/>
<path fill-rule="evenodd" clip-rule="evenodd" d="M90.6902 9.55167C91.0792 9.94374 91.0767 10.5769 90.6846 10.9659L87.7685 13.8591C87.3764 14.248 86.7433 14.2455 86.3543 13.8535C85.9653 13.4614 85.9678 12.8283 86.3599 12.4393L89.276 9.54609C89.668 9.15711 90.3012 9.15961 90.6902 9.55167ZM90.6902 15.4988C91.0792 15.8908 91.0767 16.524 90.6846 16.913L87.7685 19.8062C87.3764 20.1951 86.7433 20.1926 86.3543 19.8006C85.9653 19.4085 85.9678 18.7754 86.3599 18.3864L89.276 15.4932C89.668 15.1042 90.3012 15.1067 90.6902 15.4988ZM90.6902 21.7673C91.0792 22.1594 91.0767 22.7926 90.6846 23.1815L87.7685 26.0747C87.3764 26.4637 86.7433 26.4612 86.3543 26.0691C85.9653 25.6771 85.9678 25.0439 86.3599 24.6549L89.276 21.7618C89.668 21.3728 90.3012 21.3753 90.6902 21.7673ZM83.5 9.25598C84.0523 9.25598 84.5 9.7037 84.5 10.256L84.5 35.1538C84.5 35.7061 84.0523 36.1538 83.5 36.1538C82.9477 36.1538 82.5 35.7061 82.5 35.1538L82.5 10.256C82.5 9.7037 82.9477 9.25598 83.5 9.25598ZM80.6458 13.8535C80.2568 14.2455 79.6236 14.248 79.2316 13.8591L76.3154 10.9659C75.9234 10.5769 75.9209 9.94374 76.3099 9.55167C76.6988 9.15961 77.332 9.15711 77.7241 9.54609L80.6402 12.4393C81.0322 12.8283 81.0347 13.4614 80.6458 13.8535ZM80.6458 19.9613C80.2568 20.3534 79.6236 20.3559 79.2316 19.9669L76.3154 17.0737C75.9234 16.6847 75.9209 16.0516 76.3099 15.6595C76.6988 15.2674 77.332 15.2649 77.7241 15.6539L80.6402 18.5471C81.0322 18.9361 81.0347 19.5693 80.6458 19.9613ZM80.6458 26.0691C80.2568 26.4612 79.6236 26.4637 79.2316 26.0747L76.3154 23.1815C75.9234 22.7926 75.9209 22.1594 76.3099 21.7673C76.6988 21.3753 77.332 21.3728 77.7241 21.7618L80.6402 24.6549C81.0322 25.0439 81.0347 25.6771 80.6458 26.0691Z" fill="white"/>
<path fill-rule="evenodd" clip-rule="evenodd" d="M145.5 8.06812C146.052 8.06812 146.5 8.51583 146.5 9.06812V11.1693L148.601 11.1693C149.153 11.1693 149.601 11.617 149.601 12.1693C149.601 12.7216 149.153 13.1693 148.601 13.1693L146.5 13.1693L146.5 19.6922L149.924 16.2674C150.315 15.8769 150.948 15.8768 151.339 16.2674C151.729 16.6579 151.729 17.291 151.339 17.6816L148.434 20.5861L153.917 20.5861V18.4848C153.917 17.9326 154.365 17.4848 154.917 17.4848C155.469 17.4848 155.917 17.9326 155.917 18.4848V20.5861H158.018C158.57 20.5861 159.018 21.0338 159.018 21.5861C159.018 22.1383 158.57 22.5861 158.018 22.5861H155.917V24.6873C155.917 25.2396 155.469 25.6873 154.917 25.6873C154.365 25.6873 153.917 25.2396 153.917 24.6873V22.5861L147.733 22.5861L151.339 26.1917C151.729 26.5823 151.729 27.2154 151.339 27.6059C150.948 27.9965 150.315 27.9965 149.924 27.6059L146.67 24.3511L146.67 30.2405H148.771C149.323 30.2405 149.771 30.6882 149.771 31.2405C149.771 31.7927 149.323 32.2405 148.771 32.2405H146.67V34.3417C146.67 34.8939 146.222 35.3417 145.67 35.3417C145.117 35.3417 144.67 34.8939 144.67 34.3417V32.2405H142.569C142.016 32.2405 141.569 31.7927 141.569 31.2405C141.569 30.6882 142.016 30.2405 142.569 30.2405H144.67L144.67 24.3509L141.415 27.6055C141.024 27.996 140.391 27.996 140.001 27.6054C139.61 27.2149 139.61 26.5817 140.001 26.1912L143.606 22.5858L137.083 22.5858L137.083 24.687C137.083 25.2393 136.635 25.687 136.083 25.687C135.531 25.687 135.083 25.2393 135.083 24.687L135.083 22.5858L132.982 22.5858C132.43 22.5858 131.982 22.1381 131.982 21.5858C131.982 21.0335 132.43 20.5858 132.982 20.5858L135.083 20.5858L135.083 18.4846C135.083 17.9323 135.531 17.4846 136.083 17.4846C136.635 17.4846 137.083 17.9323 137.083 18.4846L137.083 20.5858L142.904 20.5858L140.001 17.6821C139.61 17.2915 139.61 16.6584 140.001 16.2679C140.391 15.8773 141.024 15.8773 141.415 16.2679L144.5 19.353L144.5 13.1693L142.399 13.1693C141.846 13.1693 141.399 12.7216 141.399 12.1693C141.399 11.617 141.846 11.1693 142.399 11.1693L144.5 11.1693V9.06812C144.5 8.51583 144.948 8.06812 145.5 8.06812Z" fill="white"/>
</svg>
