<svg width="28" height="28" viewBox="0 0 28 28" fill="none" xmlns="http://www.w3.org/2000/svg">
<path fill-rule="evenodd" clip-rule="evenodd" d="M13.7682 0.599583C14.3204 0.599583 14.7682 1.0473 14.7682 1.59958V3.70079L16.8694 3.70079C17.4217 3.70079 17.8694 4.14851 17.8694 4.70079C17.8694 5.25308 17.4217 5.70079 16.8694 5.70079L14.7682 5.70079L14.7682 12.2237L18.1926 8.79889C18.5831 8.40835 19.2163 8.40832 19.6069 8.79882C19.9974 9.18933 19.9974 9.82249 19.6069 10.213L16.7027 13.1175L22.1851 13.1175V11.0163C22.1851 10.464 22.6328 10.0163 23.1851 10.0163C23.7374 10.0163 24.1851 10.464 24.1851 11.0163V13.1175H26.2863C26.8386 13.1175 27.2863 13.5652 27.2863 14.1175C27.2863 14.6698 26.8386 15.1175 26.2863 15.1175H24.1851V17.2187C24.1851 17.771 23.7374 18.2187 23.1851 18.2187C22.6328 18.2187 22.1851 17.771 22.1851 17.2187V15.1175L16.0012 15.1175L19.6069 18.7232C19.9974 19.1137 19.9974 19.7469 19.6069 20.1374C19.2164 20.5279 18.5832 20.5279 18.1927 20.1374L14.9379 16.8826L14.9379 22.7719H17.0391C17.5914 22.7719 18.0391 23.2196 18.0391 23.7719C18.0391 24.3242 17.5914 24.7719 17.0391 24.7719H14.9379V26.8731C14.9379 27.4254 14.4902 27.8731 13.9379 27.8731C13.3857 27.8731 12.9379 27.4254 12.9379 26.8731V24.7719H10.8367C10.2844 24.7719 9.83673 24.3242 9.83673 23.7719C9.83673 23.2196 10.2844 22.7719 10.8367 22.7719H12.9379L12.9379 16.8824L9.68298 20.137C9.29244 20.5275 8.65927 20.5275 8.26877 20.1369C7.87826 19.7464 7.87829 19.1132 8.26883 18.7227L11.8746 15.1173L5.35142 15.1173L5.35142 17.2185C5.35142 17.7708 4.90371 18.2185 4.35142 18.2185C3.79914 18.2185 3.35142 17.7708 3.35142 17.2185L3.35142 15.1173L1.25021 15.1173C0.697926 15.1173 0.250211 14.6696 0.250211 14.1173C0.250211 13.565 0.697927 13.1173 1.25021 13.1173L3.35142 13.1173L3.35142 11.0161C3.35142 10.4638 3.79914 10.0161 4.35142 10.0161C4.90371 10.0161 5.35142 10.4638 5.35142 11.0161L5.35142 13.1173L11.1725 13.1173L8.2688 10.2135C7.87828 9.82302 7.87828 9.18985 8.2688 8.79933C8.65932 8.4088 9.29249 8.4088 9.68301 8.79933L12.7682 11.8845L12.7682 5.70079L10.6669 5.70079C10.1147 5.70079 9.66694 5.25308 9.66694 4.70079C9.66694 4.14851 10.1147 3.70079 10.6669 3.70079L12.7682 3.70079V1.59958C12.7682 1.0473 13.2159 0.599583 13.7682 0.599583Z" fill="white"/>
</svg>
