<svg width="26" height="24" viewBox="0 0 26 24" fill="none" xmlns="http://www.w3.org/2000/svg">
<path d="M17.8256 6.39096H11.3686C10.7994 6.39096 10.3381 6.84748 10.3381 7.41081C10.3381 7.97408 10.7994 8.43065 11.3686 8.43065H17.8256C18.3951 8.43065 18.856 7.97413 18.856 7.41081C18.856 6.84748 18.3947 6.39096 17.8256 6.39096Z" fill="white"/>
<path d="M20.2985 11.3201H11.3686C10.7994 11.3201 10.3381 11.7766 10.3381 12.34C10.3381 12.9032 10.7994 13.3598 11.3686 13.3598H20.2985C20.8676 13.3598 21.3289 12.9033 21.3289 12.34C21.3289 11.7766 20.8676 11.3201 20.2985 11.3201Z" fill="white"/>
<path d="M24.9696 0H6.73182C6.16271 0 5.70141 0.456522 5.70141 1.01985V10.6402H3.88111C1.74098 10.6402 0 12.3637 0 14.4816V20.1586C0 22.2768 1.74098 24 3.88111 24C4.05625 24 4.22871 23.9884 4.39735 23.966H21.3976C23.9351 23.966 26 21.9226 26 19.4108V1.01985C26 0.456522 25.5388 0 24.9696 0ZM5.70147 20.1586C5.70147 21.0326 5.06914 21.7635 4.23353 21.9263H3.88116V21.9603C2.87721 21.9603 2.0608 21.1519 2.0608 20.1586V14.4816C2.0608 13.4883 2.87757 12.6799 3.88116 12.6799H5.70152L5.70147 20.1586ZM23.9392 19.4108C23.9392 20.7743 22.7756 21.9263 21.3976 21.9263H7.32636C7.6049 21.397 7.76222 20.7957 7.76222 20.1586V2.03965H23.9392V19.4108Z" fill="white"/>
<path d="M17.8256 15.9437H11.3686C10.7994 15.9437 10.3381 16.4002 10.3381 16.9635C10.3381 17.5268 10.7994 17.9834 11.3686 17.9834H17.8256C18.3951 17.9834 18.856 17.5269 18.856 16.9635C18.856 16.4002 18.3947 15.9437 17.8256 15.9437Z" fill="white"/>
</svg>
