<svg width="28" height="24" viewBox="0 0 28 24" fill="none" xmlns="http://www.w3.org/2000/svg">
<path d="M20.2051 4.54493C20.0043 4.34477 19.6793 4.34534 19.4792 4.54611L19.4568 4.56854C19.2567 4.76937 19.2572 5.09442 19.4581 5.29458C19.5583 5.39443 19.6893 5.44433 19.8204 5.44433C19.9521 5.44433 20.0837 5.39402 20.184 5.2934L20.2064 5.27097C20.4065 5.07014 20.406 4.74509 20.2051 4.54493Z" fill="white"/>
<path d="M22.7563 7.82213C24.7158 5.86255 26.2228 3.44794 27.1144 0.839278C27.1777 0.654008 27.1301 0.448769 26.9916 0.310266C26.8531 0.171763 26.6479 0.124226 26.4626 0.187472C24.405 0.890716 22.5052 1.94956 20.8161 3.33475C20.5969 3.51452 20.5649 3.83799 20.7447 4.05719C20.9244 4.27644 21.2479 4.30853 21.4671 4.12865C22.7695 3.06067 24.2043 2.19828 25.7446 1.55664C24.0064 5.71368 20.6479 9.07215 16.4908 10.8104C17.1163 9.30922 17.9519 7.90719 18.9831 6.63084C19.1613 6.4103 19.127 6.0871 18.9064 5.90891C18.6858 5.73062 18.3626 5.76502 18.1845 5.98561C16.8406 7.64893 15.8101 9.51384 15.1216 11.5284C15.1144 11.5496 15.109 11.5711 15.1046 11.5927C14.9345 11.7593 14.7638 11.9252 14.5925 12.0903C15.0971 10.5444 15.3598 8.91044 15.3598 7.27721C15.3598 4.97538 14.8386 2.6719 13.8527 0.615763C13.7673 0.437681 13.5873 0.324383 13.3898 0.324383C13.1923 0.324383 13.0123 0.437681 12.9269 0.615763C11.9409 2.6719 11.4198 4.97538 11.4198 7.27721C11.4198 9.5048 11.9079 11.7338 12.8331 13.7389C11.8389 14.6445 10.8243 15.526 9.79072 16.3826C10.323 14.7314 10.6 12.9885 10.6 11.2463C10.6 8.76193 10.0375 6.27591 8.97336 4.05678C8.88794 3.8787 8.70796 3.7654 8.51047 3.7654C8.31298 3.7654 8.13295 3.8787 8.04758 4.05678C6.98344 6.27591 6.42096 8.76193 6.42096 11.2463C6.42096 13.5548 6.9069 15.8646 7.82945 17.9605C6.76322 18.7926 5.67834 19.5984 4.57638 20.377C5.02613 18.9746 5.26057 17.4952 5.26057 16.0163C5.26057 13.8973 4.78079 11.7768 3.87308 9.88392C3.78771 9.70583 3.60773 9.59254 3.41019 9.59254C3.21265 9.59254 3.03267 9.70583 2.9473 9.88392C2.03958 11.7768 1.5598 13.8973 1.5598 16.0163C1.5598 17.9515 1.96114 19.8874 2.72193 21.6505C2.18373 22.0097 1.64199 22.3628 1.09634 22.7091C0.856967 22.861 0.786073 23.1782 0.937974 23.4176C1.03572 23.5717 1.20199 23.656 1.37191 23.656C1.46601 23.656 1.56119 23.6302 1.64651 23.576C2.20868 23.2193 2.7668 22.8553 3.32117 22.4849C5.19635 23.3712 7.29058 23.8401 9.38363 23.8401C11.5026 23.8401 13.6232 23.3603 15.5161 22.4526C15.6941 22.3673 15.8074 22.1873 15.8074 21.9897C15.8074 21.7922 15.6941 21.6122 15.5161 21.5268C13.6232 20.6191 11.5027 20.1394 9.38363 20.1394C8.29517 20.1394 7.2065 20.2669 6.14822 20.5131C6.93144 19.9431 7.70578 19.3594 8.47058 18.7624C10.4801 19.6928 12.7158 20.1838 14.9498 20.1838C17.2516 20.1838 19.5551 19.6627 21.6112 18.6767C21.7893 18.5913 21.9026 18.4113 21.9026 18.2138C21.9026 18.0162 21.7893 17.8362 21.6112 17.7509C19.5551 16.7649 17.2517 16.2437 14.9498 16.2437C13.5896 16.2437 12.2288 16.4259 10.9188 16.7782C11.739 16.0887 12.5471 15.3835 13.3423 14.6632C14.7422 15.3064 16.2311 15.734 17.7721 15.9343C17.7946 15.9372 17.8169 15.9386 17.8389 15.9386C18.093 15.9386 18.3137 15.7501 18.3474 15.4914C18.3839 15.2102 18.1856 14.9527 17.9045 14.9161C16.7799 14.77 15.6851 14.4944 14.6368 14.0943C17.9249 12.8441 21.6271 12.8441 24.9152 14.0943C23.8834 14.4881 22.8063 14.7613 21.7001 14.9092C21.4191 14.9468 21.2218 15.2051 21.2594 15.4861C21.297 15.7671 21.5553 15.9639 21.8362 15.9269C23.441 15.7122 24.989 15.2513 26.4374 14.5568C26.6155 14.4714 26.7288 14.2914 26.7288 14.0939C26.7288 13.8963 26.6155 13.7164 26.4374 13.631C24.3813 12.645 22.0778 12.1239 19.776 12.1239C18.2866 12.1239 16.7966 12.3424 15.3734 12.7635C15.6112 12.5338 15.848 12.303 16.0833 12.0706C18.5732 11.1679 20.8747 9.70383 22.7563 7.82213ZM3.41029 20.6124C2.31931 17.6659 2.31931 14.367 3.41029 11.4205C4.50127 14.3669 4.50127 17.6658 3.41029 20.6124ZM13.9796 21.9899C11.0331 23.0809 7.73428 23.0809 4.78783 21.9899C7.73428 20.8989 11.0332 20.8989 13.9796 21.9899ZM8.51057 16.9231C7.10213 13.297 7.10213 9.19577 8.51057 5.56958C9.91896 9.19577 9.91896 13.297 8.51057 16.9231ZM20.088 18.2139C16.8003 19.4638 13.0996 19.4638 9.81187 18.2139C13.0996 16.9639 16.8003 16.9639 20.088 18.2139ZM13.3899 12.4153C12.1401 9.1279 12.1402 5.42667 13.3899 2.13919C14.6396 5.42672 14.6397 9.12795 13.3899 12.4153Z" fill="white"/>
<path d="M19.9521 15.0363L19.9307 15.0365C19.6472 15.0405 19.4206 15.2735 19.4246 15.557C19.4285 15.8381 19.6576 16.0632 19.9377 16.0632C19.9402 16.0632 19.9427 16.0632 19.9451 16.0631L19.9665 16.0629C20.25 16.0589 20.4766 15.8259 20.4726 15.5424C20.4686 15.2588 20.2353 15.0307 19.9521 15.0363Z" fill="white"/>
</svg>
