<svg width="671" height="141" viewBox="0 0 671 141" fill="none" xmlns="http://www.w3.org/2000/svg">
<path d="M52.7012 109.928H59.3105L81.4795 50.9941L105.507 109.928H112.117L145.095 22.6289L164.51 6.03662V2.25H119.552L119.896 6.10547L135.731 19.8062L115.077 75.2974L93.3901 18.2915L107.573 6.17432V2.25H61.6514L76.1094 37.7754L62.2021 75.1597L39.0693 13.7476L47.1934 6.17432V2.25H0.652344L0.996582 6.10547L15.5923 18.7046L52.7012 109.928ZM203.172 92.4404V61.8032C203.172 47.001 203.172 35.5723 185.616 35.5723C179.695 35.5723 171.227 36.8804 160.004 43.2144C151.123 48.2402 146.166 53.335 144.651 67.4487L166.889 61.8721V46.519C168.473 46.1748 169.85 46.0371 171.089 46.0371C181.967 46.0371 181.967 58.6362 181.967 65.0391V70.4092L143.55 80.0479C142.104 83.8345 141.484 87.2769 141.484 90.3062C141.484 101.184 149.608 109.928 161.588 109.928C170.676 109.928 177.423 105.04 182.173 98.981L188.645 109.859L211.502 98.981V96.3647L203.172 92.4404ZM172.741 96.5713C167.44 96.5713 163.86 92.9224 163.86 88.4473C163.86 82.5264 170.194 80.0479 181.967 77.5693V91.752C179.764 94.7812 176.39 96.5713 172.741 96.5713ZM258.633 37.4312V39.8408L271.438 50.3745L255.466 81.2183L239.493 50.168L251.886 39.9097V37.5H209.82V39.4966L243.762 103.869L233.572 123.491L224.002 118.052L206.722 129.825L226.55 140.978H234.192L287.824 37.4312H258.633ZM358.845 96.9155V35.5723H355.54L349.757 37.5H313.405V29.2383C313.405 24.2812 312.441 19.9438 320.015 16.5015L329.171 12.3018L346.865 23.2485L362.218 12.7837V10.374L344.318 0.322266L314.576 12.9902C297.501 20.2881 292.544 29.5825 292.2 37.5H283.525L281.46 47.1387H292.2V96.9155L282.148 105.59V108H323.526V105.59L313.405 96.9155V47.1387H328.139L337.64 50.9941V96.9155L327.519 105.59V108H368.896V105.59L358.845 96.9155ZM448.454 96.9155V62.0098C448.454 36.4673 436.13 35.5723 418.85 35.5723L400.054 45.1421V35.5723H396.749L369.348 48.0337V50.4434L378.849 54.2988V96.9155L368.728 105.59V108H410.106V105.59L400.054 96.9155V52.9219C404.46 50.7188 408.522 49.6172 412.791 49.6172C427.249 49.6172 427.249 61.3901 427.249 66.8291V96.9155L417.128 105.59V108H458.506V105.59L448.454 96.9155ZM528.08 92.4404V0.322266H524.776L497.374 12.7837V15.1934L506.875 19.0488V38.1196C502.538 36.2607 498.338 35.5723 493.588 35.5723C476.169 35.5723 457.305 44.729 457.305 74.7466C457.305 100.083 470.73 109.652 488.011 109.652L507.495 99.7383L513.554 109.79L536.411 98.9121V96.3647L528.08 92.4404ZM479.612 69.5142C479.612 49.5483 488.424 44.3159 496.342 44.3159C500.817 44.3159 504.19 45.9683 506.875 49.1353V92.0273C502.813 94.7124 498.958 95.5386 495.034 95.5386C487.736 95.5386 479.612 89.3423 479.612 69.5142ZM601.442 85.0737C595.727 93.4043 590.357 97.3975 581.545 97.3975C569.91 97.3975 561.51 90.4438 561.51 68.5503V67.7241H605.848C605.022 48.791 592.078 35.5723 572.663 35.5723C553.248 35.5723 537.207 48.791 537.207 72.75C537.207 96.709 553.18 109.928 572.801 109.928C588.016 109.928 601.029 102.079 606.123 87.4146L601.442 85.0737ZM579.479 42.6636C582.164 45.8306 583.541 51.3384 583.541 56.7773C583.541 57.6724 583.473 58.5674 583.404 59.4624H562.13C563.713 48.8599 568.739 42.5259 579.479 42.6636ZM654.424 34.8838L639.209 45.2109V35.5723H635.904L608.503 48.0337V50.4434L618.004 54.2988V96.9155L607.883 105.59V108H649.261V105.59L639.209 96.9155V48.3779H640.173L655.113 56.7773L670.466 46.3125V43.9028L654.424 34.8838Z" fill="#FBFBFA"/>
</svg>
