{
    "asset" : {
        "generator" : "Khronos glTF Blender I/O v1.5.17",
        "version" : "2.0"
    },
    "scene" : 0,
    "scenes" : [
        {
            "name" : "Scene",
            "nodes" : [
                0
            ]
        }
    ],
    "nodes" : [
        {
            "mesh" : 0,
            "name" : "2.3",
            "rotation" : [
                0,
                0,
                0,
                -1
            ],
            "translation" : [
                -0.00800000037997961,
                0,
                0
            ]
        }
    ],
    "meshes" : [
        {
            "name" : "Mesh_0.004",
            "primitives" : [
                {
                    "attributes" : {
                        "POSITION" : 0,
                        "NORMAL" : 1,
                        "TEXCOORD_0" : 2
                    },
                    "indices" : 3
                }
            ]
        }
    ],
    "accessors" : [
        {
            "bufferView" : 0,
            "componentType" : 5126,
            "count" : 459,
            "max" : [
                0.2020949423313141,
                0.8951016068458557,
                0.8312835097312927
            ],
            "min" : [
                -0.2020949423313141,
                -0.8951016068458557,
                -0.8312835097312927
            ],
            "type" : "VEC3"
        },
        {
            "bufferView" : 1,
            "componentType" : 5126,
            "count" : 459,
            "type" : "VEC3"
        },
        {
            "bufferView" : 2,
            "componentType" : 5126,
            "count" : 459,
            "type" : "VEC2"
        },
        {
            "bufferView" : 3,
            "componentType" : 5123,
            "count" : 1920,
            "type" : "SCALAR"
        }
    ],
    "bufferViews" : [
        {
            "buffer" : 0,
            "byteLength" : 5508,
            "byteOffset" : 0
        },
        {
            "buffer" : 0,
            "byteLength" : 5508,
            "byteOffset" : 5508
        },
        {
            "buffer" : 0,
            "byteLength" : 3672,
            "byteOffset" : 11016
        },
        {
            "buffer" : 0,
            "byteLength" : 3840,
            "byteOffset" : 14688
        }
    ],
    "buffers" : [
        {
            "byteLength" : 18528,
            "uri" : "data:application/octet-stream;base64,"
        }
    ]
}
