<svg width="14" height="28" viewBox="0 0 14 28" fill="none" xmlns="http://www.w3.org/2000/svg">
<path fill-rule="evenodd" clip-rule="evenodd" d="M13.2229 8.14012C12.8324 8.53065 12.1992 8.53065 11.8087 8.14012L7.85303 4.18449L7.85303 14.014L13.2229 19.3838C13.6134 19.7743 13.6134 20.4075 13.2229 20.798C12.8324 21.1885 12.1992 21.1885 11.8087 20.798L7.85303 16.8424L7.85303 26.7023C7.85303 27.2546 7.40532 27.7023 6.85303 27.7023C6.30075 27.7023 5.85303 27.2546 5.85303 26.7023L5.85303 16.8424L1.8974 20.798C1.50687 21.1885 0.873706 21.1885 0.483182 20.798C0.092657 20.4075 0.092657 19.7743 0.483182 19.3838L5.85303 14.014L5.85303 4.18449L1.89739 8.14012C1.50687 8.53065 0.873705 8.53065 0.483181 8.14012C0.0926564 7.7496 0.0926564 7.11643 0.483181 6.72591L6.14593 1.06316C6.33346 0.875628 6.58782 0.770272 6.85303 0.770272C7.11825 0.770272 7.3726 0.875628 7.56014 1.06316L13.2229 6.72591C13.6134 7.11644 13.6134 7.7496 13.2229 8.14012Z" fill="white"/>
</svg>
