<svg width="16" height="28" viewBox="0 0 16 28" fill="none" xmlns="http://www.w3.org/2000/svg">
<path fill-rule="evenodd" clip-rule="evenodd" d="M15.0432 1.08305C15.4322 1.47511 15.4297 2.10827 15.0376 2.49725L12.1215 5.39044C11.7294 5.77942 11.0963 5.77692 10.7073 5.38486C10.3183 4.9928 10.3208 4.35964 10.7129 3.97066L13.629 1.07747C14.021 0.68849 14.6542 0.690989 15.0432 1.08305ZM15.0432 7.03016C15.4322 7.42222 15.4297 8.05538 15.0376 8.44436L12.1215 11.3375C11.7294 11.7265 11.0963 11.724 10.7073 11.332C10.3183 10.9399 10.3208 10.3067 10.7129 9.91776L13.629 7.02457C14.021 6.63559 14.6542 6.63809 15.0432 7.03016ZM15.0432 13.2987C15.4322 13.6908 15.4297 14.3239 15.0376 14.7129L12.1215 17.6061C11.7294 17.9951 11.0963 17.9926 10.7073 17.6005C10.3183 17.2085 10.3208 16.5753 10.7129 16.1863L13.629 13.2931C14.021 12.9042 14.6542 12.9067 15.0432 13.2987ZM7.85303 0.787362C8.40531 0.787362 8.85303 1.23508 8.85303 1.78736L8.85303 26.6852C8.85303 27.2375 8.40531 27.6852 7.85303 27.6852C7.30074 27.6852 6.85303 27.2375 6.85303 26.6852L6.85303 1.78736C6.85303 1.23508 7.30075 0.787362 7.85303 0.787362ZM4.99878 5.38486C4.6098 5.77692 3.97664 5.77942 3.58457 5.39044L0.668455 2.49725C0.276393 2.10827 0.273893 1.47511 0.662872 1.08305C1.05185 0.690989 1.68501 0.68849 2.07708 1.07747L4.99319 3.97066C5.38526 4.35964 5.38776 4.9928 4.99878 5.38486ZM4.99878 11.4927C4.6098 11.8848 3.97664 11.8873 3.58458 11.4983L0.668455 8.60509C0.276393 8.21611 0.273894 7.58295 0.662873 7.19089C1.05185 6.79882 1.68501 6.79633 2.07708 7.1853L4.99319 10.0785C5.38526 10.4675 5.38776 11.1006 4.99878 11.4927ZM4.99878 17.6005C4.6098 17.9926 3.97664 17.9951 3.58458 17.6061L0.668456 14.7129C0.276394 14.3239 0.273894 13.6908 0.662873 13.2987C1.05185 12.9067 1.68501 12.9042 2.07708 13.2931L4.9932 16.1863C5.38526 16.5753 5.38776 17.2085 4.99878 17.6005Z" fill="white"/>
</svg>
