<svg width="14" height="22" viewBox="0 0 14 22" fill="none" xmlns="http://www.w3.org/2000/svg">
<path d="M12.9228 0.78306C12.6771 0.659586 12.3905 0.694864 12.1799 0.871255L5.34829 6.59073H2.0842C1.30891 6.59073 0.679688 7.25072 0.679688 8.06065V13.9403C0.679688 14.7503 1.30891 15.4103 2.0842 15.4103H5.34829L12.1784 21.1297C12.3063 21.2356 12.4622 21.29 12.6181 21.29C12.7206 21.29 12.8245 21.2664 12.9228 21.2179C13.1658 21.0945 13.3203 20.8372 13.3203 20.555V1.446C13.3203 1.16377 13.1658 0.906533 12.9228 0.78306ZM4.89323 13.9403H2.0842V8.06065H4.89323V13.9403ZM11.9158 19.0248L6.29774 14.3211V7.67994L11.9158 2.97619V19.0248Z" fill="white"/>
</svg>
